<?xml version="1.0" standalone="no"?>
<!DOCTYPE svg PUBLIC "-//W3C//DTD SVG 20010904//EN"
 "http://www.w3.org/TR/2001/REC-SVG-20010904/DTD/svg10.dtd">
<svg version="1.0" xmlns="http://www.w3.org/2000/svg"
 width="1680.000000pt" height="1050.000000pt" viewBox="0 0 1680.000000 1050.000000"
 preserveAspectRatio="xMidYMid meet">
<metadata>
Created by potrace 1.15, written by Peter Selinger 2001-2017
</metadata>
<g transform="translate(0.000000,1050.000000) scale(0.100000,-0.100000)"
fill="#000000" stroke="none">
<path d="M4015 9510 c3 -5 -1 -10 -9 -10 -9 0 -16 -6 -16 -14 0 -8 -12 -24
-26 -35 -22 -18 -25 -26 -20 -58 6 -34 2 -42 -34 -80 -43 -45 -60 -52 -79 -30
-8 10 -2 21 25 48 50 48 60 68 33 66 -12 -1 -40 -22 -63 -47 -51 -56 -119
-110 -139 -110 -10 0 -13 -7 -10 -20 3 -12 0 -20 -7 -20 -6 0 -10 -5 -8 -12 3
-7 -7 -23 -20 -35 -29 -27 -36 -29 -28 -8 3 9 0 15 -9 15 -8 0 -15 4 -15 10 0
6 -9 6 -25 0 -16 -6 -26 -6 -31 1 -3 6 -15 8 -26 6 -29 -8 -62 26 -56 57 5 22
3 24 -14 15 -16 -9 -20 -7 -25 10 -7 26 -12 26 -29 4 -11 -16 -13 -16 -24 9
-7 14 -20 29 -29 32 -18 7 -37 19 -99 60 -48 33 -57 31 -42 -8 5 -15 10 -39
10 -52 0 -25 0 -25 -37 10 l-38 36 -6 -35 c-8 -45 -15 -52 -25 -23 -8 22 -8
22 -14 -7 -4 -21 -11 -30 -25 -30 -11 0 -26 -4 -33 -8 -8 -5 -19 -4 -27 3 -13
10 -15 8 -15 -16 l0 -27 -25 23 c-26 24 -33 50 -14 50 8 0 8 4 1 13 -6 7 -8
24 -5 37 5 19 3 22 -10 17 -11 -4 -17 -1 -17 8 0 8 -3 14 -7 14 -5 -1 -23 2
-40 6 -27 6 -34 13 -39 42 -7 38 -24 27 -24 -16 0 -20 -2 -21 -15 -11 -8 7
-15 20 -16 29 0 15 -1 15 -11 0 -10 -15 -14 -15 -45 3 -18 11 -33 26 -33 34 0
20 -47 -14 -53 -39 -5 -16 -8 -16 -41 4 -38 22 -43 20 -25 -13 9 -16 8 -23 -2
-29 -12 -7 -11 -11 1 -19 8 -5 23 -10 32 -10 20 0 52 -53 53 -87 1 -29 -3 -29
-27 3 l-20 25 -22 -36 c-13 -21 -25 -32 -31 -26 -6 4 -27 6 -47 4 -37 -5 -37
-5 -20 -29 9 -13 23 -24 30 -24 8 0 5 -10 -9 -29 -26 -36 -16 -62 11 -29 18
22 19 22 20 3 1 -17 3 -16 16 8 8 15 19 27 25 27 6 0 8 4 5 9 -3 5 1 14 9 21
8 7 15 11 16 9 6 -33 5 -41 -7 -46 -10 -4 -12 -9 -4 -18 12 -14 3 -45 -12 -45
-6 0 -8 7 -4 15 4 12 2 13 -13 6 -10 -6 -23 -17 -30 -25 -18 -22 -108 -19
-121 3 -8 14 -9 14 -15 -1 -4 -10 -11 -18 -15 -18 -13 0 -18 64 -7 85 6 11 12
23 13 28 1 4 2 10 3 13 0 4 8 1 16 -6 13 -11 15 -7 15 31 0 30 6 49 22 66 17
18 18 23 6 23 -9 0 -21 14 -27 32 -10 29 -12 30 -25 13 -20 -28 -63 -12 -83
31 -16 32 -18 33 -25 15 -6 -17 -16 -21 -49 -21 -47 0 -48 -13 -4 -38 17 -9
32 -18 34 -20 3 -1 0 -7 -5 -12 -6 -6 -23 -3 -47 10 -20 11 -39 20 -41 20 -2
0 -6 -13 -8 -30 -3 -16 -1 -30 4 -30 4 0 8 -4 8 -9 0 -5 -18 -12 -40 -16 -52
-9 -61 -25 -14 -25 33 0 35 -2 23 -16 -12 -15 -11 -16 9 -10 15 5 22 3 23 -6
0 -7 4 -3 9 10 13 30 60 31 60 1 0 -12 -5 -19 -12 -16 -7 2 -24 -4 -37 -14
-21 -17 -26 -17 -52 -4 -37 19 -39 19 -36 -6 3 -30 -27 -48 -54 -31 -15 9 -24
10 -33 2 -11 -8 -15 1 -20 42 -5 37 -10 48 -16 38 -6 -8 -10 -23 -10 -33 0
-14 -5 -17 -19 -12 -18 5 -19 3 -11 -24 5 -17 11 -35 15 -41 9 -15 -3 -47 -21
-54 -12 -5 -15 1 -14 22 4 56 1 66 -15 52 -8 -7 -15 -19 -15 -26 0 -20 -13
-17 -27 5 -10 16 -9 20 11 25 17 4 23 13 23 35 0 30 0 30 -29 15 -28 -14 -29
-14 -19 3 13 25 -19 49 -39 30 -10 -10 -11 -5 -7 20 4 18 2 35 -3 38 -6 3 -10
-1 -10 -9 0 -9 -5 -16 -11 -16 -5 0 -7 5 -4 10 3 6 -1 10 -9 10 -12 0 -13 -6
-5 -32 5 -18 6 -57 3 -87 -6 -49 -8 -53 -20 -36 -13 18 -14 17 -14 -7 0 -29
-29 -46 -41 -26 -7 10 -11 10 -21 0 -20 -20 -28 -14 -28 23 0 36 -9 42 -38 26
-13 -7 -24 -2 -46 20 l-29 29 43 0 c28 0 47 6 55 16 9 14 13 10 23 -25 17 -54
30 -59 38 -16 4 24 12 35 23 35 30 0 30 10 0 40 -29 28 -37 50 -20 50 4 0 6
11 3 25 -5 28 -12 31 -30 13 -9 -9 -12 -7 -12 11 0 13 -4 20 -11 16 -6 -4 -22
4 -36 16 l-25 24 4 -37 c3 -28 0 -38 -10 -38 -13 0 -51 -38 -52 -51 0 -4 9 -9
21 -12 21 -6 21 -6 -5 -39 -21 -28 -24 -42 -20 -77 5 -40 4 -42 -18 -39 -28 4
-38 47 -14 60 9 5 15 19 15 31 -1 12 1 55 5 95 5 59 4 74 -9 78 -8 3 -20 24
-27 46 -6 22 -19 43 -27 46 -9 3 -24 12 -33 19 -18 16 -38 10 -38 -11 0 -8 -9
-16 -20 -19 -13 -3 -20 -14 -20 -29 0 -17 -3 -19 -9 -9 -14 22 -44 5 -36 -19
4 -12 2 -27 -4 -34 -8 -9 -8 -22 -1 -40 9 -25 8 -26 -25 -26 -18 0 -37 -5 -41
-11 -6 -10 -30 -7 -70 8 -13 5 -16 3 -11 -10 7 -19 -46 -63 -84 -69 -23 -4
-22 -5 14 -27 36 -22 37 -25 21 -42 -9 -10 -13 -22 -10 -27 3 -5 -3 -17 -14
-27 -13 -11 -18 -25 -14 -39 4 -18 -1 -23 -38 -34 -24 -7 -49 -15 -56 -18 -8
-4 -10 0 -6 10 10 27 -14 47 -40 34 -27 -12 -75 7 -59 23 5 5 7 25 5 44 -4 30
-6 33 -23 24 -10 -5 -19 -6 -19 -2 0 4 -5 0 -11 -10 -10 -18 -13 -17 -46 15
l-34 33 10 -28 c14 -36 14 -37 -4 -37 -12 0 -13 -4 -6 -19 8 -15 5 -20 -17
-31 l-27 -13 28 -9 c15 -5 27 -14 27 -19 0 -6 -4 -7 -10 -4 -5 3 -10 -1 -10
-9 0 -9 -7 -16 -15 -16 -8 0 -15 7 -15 17 0 14 -2 14 -20 -2 -18 -16 -20 -16
-20 -2 0 10 -5 14 -15 11 -11 -5 -15 1 -15 19 0 20 -4 24 -20 20 -26 -7 -25 5
3 35 l22 24 -22 -6 c-17 -5 -22 -4 -18 6 3 7 -5 18 -17 23 -13 6 -24 21 -26
35 -5 38 -19 46 -43 24 -16 -13 -23 -15 -26 -7 -4 10 -8 9 -19 -1 -16 -17 -19
-30 -4 -21 5 3 10 -1 10 -9 0 -9 -6 -13 -14 -10 -11 4 -13 0 -9 -16 5 -21 3
-22 -28 -15 -44 9 -45 11 -26 33 10 10 17 21 17 23 0 3 -24 5 -53 4 -47 0 -52
2 -51 21 0 24 -22 26 -36 3 -8 -11 -12 -11 -25 6 -12 14 -18 16 -21 8 -4 -8
-15 -11 -30 -7 -35 9 -30 -11 7 -26 19 -8 27 -16 20 -23 -5 -5 -7 -16 -4 -23
4 -12 0 -12 -22 -4 -42 16 -50 12 -27 -13 17 -18 19 -26 10 -35 -9 -9 -5 -12
17 -13 17 -1 33 -1 37 -1 3 1 11 -5 17 -12 8 -10 2 -13 -29 -14 -42 -2 -80 14
-80 34 0 21 -79 102 -105 106 -23 5 -25 3 -25 -35 0 -23 7 -48 16 -58 10 -11
13 -23 8 -31 -6 -9 -10 -6 -15 12 -4 14 -7 -1031 -8 -2322 -1 -1730 2 -2348
10 -2348 8 0 8 -4 0 -14 -8 -10 -11 -80 -10 -235 1 -182 4 -221 15 -221 8 0
14 -5 14 -11 0 -6 6 -9 14 -6 8 3 19 -5 26 -19 16 -29 34 -32 25 -4 -7 23 10
50 30 50 7 0 16 -11 19 -25 4 -14 11 -25 17 -25 6 0 8 9 4 20 -7 21 8 42 39
53 10 4 16 13 12 22 -6 17 38 55 65 55 31 0 21 -17 -13 -25 l-33 -7 43 -15
c32 -11 41 -18 33 -26 -16 -16 -13 -24 12 -31 21 -6 21 -7 3 -20 -10 -8 -15
-19 -11 -25 3 -6 1 -11 -4 -11 -6 0 -11 -12 -11 -27 0 -14 3 -23 6 -20 4 3 22
-7 42 -23 19 -15 40 -27 46 -24 6 2 24 6 40 8 16 3 33 11 37 17 12 19 42 2 36
-21 -7 -29 2 -25 13 6 6 14 14 23 19 20 5 -4 16 1 25 9 12 12 20 13 43 3 36
-15 73 -48 73 -65 0 -15 31 -18 45 -4 6 5 24 12 41 15 24 6 38 1 68 -23 20
-16 38 -33 39 -38 1 -4 23 -15 48 -23 44 -15 47 -15 81 6 38 24 138 57 138 46
0 -8 53 -42 64 -42 3 0 6 7 6 16 0 14 3 14 15 4 8 -7 15 -19 15 -26 0 -8 5
-14 10 -14 6 0 10 -8 10 -18 0 -9 9 -23 19 -29 17 -11 20 -9 26 17 7 30 25 51
25 29 0 -7 13 0 29 15 16 16 34 25 40 22 6 -4 11 0 11 10 0 13 3 14 15 4 9 -7
15 -8 15 -2 0 5 11 9 25 8 30 -1 31 -4 3 -33 -12 -13 -17 -23 -10 -23 6 0 20
12 32 28 l22 27 30 -35 30 -35 -4 28 c-5 28 4 33 37 21 13 -5 14 -9 4 -15 -10
-6 -10 -11 0 -23 8 -9 10 -16 6 -16 -4 0 5 -14 19 -31 14 -17 26 -35 26 -40 0
-6 6 -9 13 -8 6 1 25 -3 40 -9 35 -15 50 -15 42 -2 -8 13 1 13 26 0 10 -6 19
-18 19 -26 0 -9 6 -14 13 -11 6 2 22 0 35 -4 29 -11 62 5 62 30 0 11 -7 21
-15 25 -8 3 -15 15 -15 27 0 15 4 19 16 15 9 -3 24 -6 34 -6 11 0 28 -9 38
-20 22 -24 93 -30 117 -10 8 7 15 25 15 40 0 22 5 28 23 28 12 0 31 3 43 7 41
13 54 -17 54 -120 l0 -94 61 -123 c51 -101 75 -137 137 -202 l75 -78 -7 -73
c-4 -40 -11 -87 -16 -106 -6 -19 -10 -117 -10 -219 -1 -148 3 -194 15 -224 21
-50 35 -228 34 -429 -1 -132 -5 -173 -21 -222 -11 -33 -24 -101 -30 -152 l-11
-92 -36 23 c-47 28 -91 48 -116 53 -18 3 -17 0 5 -17 14 -11 28 -20 31 -20 4
0 10 -7 13 -16 5 -12 1 -14 -15 -9 -12 4 -31 8 -43 9 -38 5 -65 26 -86 66 -23
46 -34 53 -19 13 6 -16 11 -30 11 -33 0 -3 5 -15 11 -28 6 -12 8 -24 5 -27 -3
-3 -43 13 -89 35 -86 42 -145 56 -72 17 41 -22 74 -56 86 -90 5 -14 3 -16 -12
-8 -10 6 -23 17 -30 25 -8 9 -38 30 -67 47 -30 17 -61 44 -69 59 -8 16 -20 32
-26 35 -6 4 1 -16 15 -44 15 -28 21 -51 15 -51 -6 0 -1 -12 10 -26 22 -28 28
-64 10 -64 -5 0 -7 -4 -4 -10 3 -5 0 -10 -7 -10 -7 0 -25 22 -40 48 -30 54
-105 142 -120 142 -5 0 -39 26 -74 59 -35 32 -92 73 -126 90 -65 33 -56 22 29
-38 57 -41 168 -164 152 -170 -6 -2 6 -22 28 -44 l38 -40 -55 38 -55 38 51
-54 c27 -30 56 -62 63 -71 12 -16 11 -17 -18 -7 -17 6 -33 15 -36 20 -3 4 -12
6 -19 3 -9 -4 -23 14 -40 51 -14 31 -29 54 -34 51 -5 -3 -37 31 -71 74 -61 78
-111 124 -161 150 -14 7 -1 -8 28 -35 82 -74 202 -255 169 -255 -7 0 -21 13
-30 30 -19 32 -121 140 -132 140 -3 0 15 -25 41 -55 45 -53 54 -82 17 -55 -10
7 0 -4 22 -24 22 -20 35 -36 28 -36 -6 0 -14 4 -17 8 -3 5 -30 15 -61 22 -48
12 -61 20 -85 54 -15 23 -40 52 -56 66 -30 28 -27 22 28 -62 21 -32 37 -61 36
-65 -1 -4 5 -22 15 -39 16 -32 16 -32 -6 -27 -22 6 -22 6 2 -21 24 -25 24 -26
4 -26 -12 0 -42 20 -67 44 -37 36 -111 89 -193 140 -29 17 -10 -3 47 -50 89
-73 72 -73 -30 1 -49 36 -93 65 -96 65 -4 0 6 -16 20 -35 15 -19 25 -35 22
-35 -4 0 3 -9 15 -21 11 -11 19 -23 16 -25 -6 -6 -74 24 -82 36 -3 6 -21 17
-38 26 l-32 17 24 -27 c29 -31 19 -34 -25 -7 -17 10 -41 22 -55 25 -20 6 -18
4 9 -14 32 -22 44 -47 17 -36 -18 7 -20 -5 -3 -22 6 -6 13 -22 15 -34 l3 -22
-27 24 c-16 14 -44 38 -63 55 -19 16 -28 22 -21 12 19 -24 2 -21 -28 6 l-25
22 23 -33 c12 -17 18 -32 13 -32 -10 0 -57 46 -141 140 -27 30 -63 63 -80 73
-22 13 -12 -1 33 -48 52 -54 63 -72 64 -101 1 -34 0 -36 -26 -29 -15 3 -46 28
-70 53 -33 36 -38 39 -22 14 12 -18 20 -35 18 -37 -2 -2 -22 4 -44 15 -23 10
-57 20 -75 24 l-34 5 37 -15 c46 -20 61 -47 20 -38 -15 3 -43 25 -62 47 -62
75 -147 151 -191 175 -26 13 -33 15 -19 5 80 -57 186 -176 174 -195 -3 -5 -15
-6 -26 -2 -11 3 -18 2 -15 -3 3 -4 -12 -7 -34 -5 -42 4 -49 -3 -21 -24 16 -13
16 -13 -1 -14 -10 0 -20 6 -23 14 -3 8 -14 16 -25 19 -13 3 0 -16 37 -59 l56
-64 -33 6 c-19 4 -44 19 -56 33 -15 16 -21 19 -17 8 5 -14 -4 -13 -60 13 -36
16 -66 27 -66 23 0 -3 19 -23 43 -44 50 -46 27 -56 -25 -11 -18 16 -55 43 -83
62 -27 18 -72 56 -98 84 -30 31 -41 39 -28 20 11 -17 21 -37 23 -44 2 -8 10
-23 20 -33 19 -22 30 -57 17 -57 -5 0 -9 3 -9 8 0 4 -18 7 -40 7 l-40 0 0
-752 0 -753 8400 0 8400 0 0 910 0 910 -21 0 c-11 0 -29 5 -40 10 -15 8 -19 7
-19 -4 0 -8 6 -16 13 -19 6 -3 -2 -5 -18 -4 -17 0 -41 -6 -54 -12 -13 -7 -34
-10 -47 -7 -27 7 -29 4 -11 -24 10 -17 9 -22 -3 -30 -9 -5 -19 -5 -26 1 -6 5
-23 8 -38 7 -19 -2 -26 -8 -26 -24 0 -27 -73 -53 -95 -34 -8 7 -20 8 -26 4 -7
-4 -9 -3 -5 4 8 14 -10 25 -26 16 -15 -10 -81 -12 -93 -3 -5 4 -35 6 -65 5
-82 -4 -83 -5 -76 -21 3 -9 0 -15 -9 -15 -7 0 -16 -8 -18 -17 -3 -12 -6 -9 -7
10 -1 15 -3 32 -4 39 -1 14 -26 23 -26 9 0 -5 -15 -12 -32 -14 -28 -3 -26 -4
11 -5 38 -2 42 -4 31 -17 -10 -12 -16 -13 -27 -4 -10 9 -17 9 -25 1 -7 -7 -31
-12 -54 -12 -43 0 -69 -25 -39 -36 8 -4 15 -11 15 -17 0 -5 -8 -3 -18 6 -10
10 -22 14 -27 10 -4 -5 -3 1 3 12 9 18 7 21 -11 22 -17 2 -19 0 -7 -7 13 -8
13 -10 -2 -10 -9 0 -23 9 -31 20 l-14 21 -6 -21 c-4 -16 -2 -20 9 -16 8 3 14
1 14 -4 0 -6 -6 -10 -12 -10 -9 0 -8 -4 2 -10 12 -8 12 -10 1 -10 -7 0 -21 8
-30 18 -22 23 -83 30 -75 8 3 -9 12 -16 18 -16 7 0 13 -7 13 -15 0 -8 -4 -15
-9 -15 -4 0 -8 4 -8 10 0 5 -7 7 -15 4 -11 -5 -14 -1 -9 12 5 15 4 16 -4 4 -8
-10 -7 -19 1 -29 10 -12 9 -14 -5 -8 -10 4 -18 2 -18 -5 0 -6 -6 -5 -17 3 -14
12 -16 12 -9 -1 6 -13 5 -13 -6 0 -7 9 -21 14 -30 12 -10 -2 -18 2 -18 8 0 6
5 8 12 4 7 -4 8 -3 4 5 -10 16 -39 -6 -32 -24 3 -9 -5 -11 -30 -5 -19 4 -37 4
-40 -1 -3 -5 4 -9 15 -9 34 0 31 -15 -4 -17 -29 -1 -33 2 -31 21 2 17 -2 22
-22 22 -24 0 -24 0 -4 -16 14 -12 17 -21 11 -31 -7 -11 -9 -11 -9 -1 0 7 -5
10 -12 6 -6 -4 -8 -3 -5 3 3 5 -14 27 -39 48 -24 21 -54 55 -65 75 -11 20 -29
42 -40 48 -19 12 -19 12 -4 -19 19 -35 15 -34 -53 18 -47 36 -75 44 -49 15 10
-10 14 -22 10 -26 -4 -3 18 -32 48 -64 30 -31 62 -66 70 -76 14 -18 13 -19
-16 -3 -16 8 -45 31 -64 51 -19 19 -38 33 -42 30 -5 -3 -22 2 -38 11 -45 23
-50 18 -13 -11 17 -14 32 -33 32 -41 0 -9 8 -22 18 -29 15 -12 14 -13 -10 -10
-29 3 -108 51 -108 65 0 5 -6 11 -14 14 -10 4 -8 -5 7 -30 22 -39 18 -38 -38
3 -16 12 -54 30 -83 40 -44 16 -59 28 -91 74 -53 76 -136 147 -198 171 -33 12
-28 -2 10 -28 57 -40 114 -97 136 -135 22 -40 18 -44 -24 -28 -14 5 -24 6 -21
1 4 -5 1 -11 -6 -13 -6 -2 5 -14 25 -27 30 -18 34 -25 24 -36 -10 -11 -15 -11
-32 1 -11 8 -33 21 -50 30 -32 18 -109 76 -138 106 -23 23 -45 24 -26 1 13
-15 12 -15 -8 -4 -40 21 -24 -3 30 -44 66 -51 43 -59 -42 -15 -33 17 -68 30
-78 28 -14 -3 -11 -8 15 -21 39 -21 41 -30 6 -21 -19 5 -25 4 -20 -5 13 -20
-5 -12 -47 23 -50 40 -104 69 -120 63 -6 -2 9 -16 35 -31 25 -15 52 -34 59
-42 11 -13 9 -14 -17 -9 -24 5 -21 2 14 -16 24 -13 38 -25 32 -27 -6 -2 -28 7
-49 21 -21 14 -55 33 -76 41 -20 9 -45 26 -55 38 -23 27 -27 11 -5 -18 31 -41
12 -34 -39 15 -30 28 -58 51 -61 51 -3 0 12 -25 34 -57 45 -62 46 -78 3 -46
-36 27 -128 73 -144 73 -7 0 20 -21 59 -47 40 -25 70 -50 67 -54 -2 -4 5 -13
17 -19 29 -16 18 -23 -17 -10 -16 6 -31 12 -34 12 -3 0 -27 9 -55 20 -27 11
-55 21 -61 22 -7 1 -18 7 -25 13 -8 6 -25 16 -38 23 -26 13 -24 4 8 -34 19
-23 5 -17 -44 19 -16 12 -46 30 -65 40 -27 14 -15 -1 50 -64 47 -45 75 -77 63
-71 -13 6 -23 8 -23 4 0 -4 -22 14 -50 40 -56 53 -68 58 -43 19 17 -27 17 -27
-24 6 -23 18 -46 30 -52 27 -5 -4 -18 2 -28 12 -10 9 -27 24 -37 32 -18 14
-19 14 -8 -6 6 -11 18 -27 27 -34 9 -7 24 -31 35 -52 17 -37 17 -37 0 -28 -11
6 -22 15 -26 21 -5 8 -9 8 -14 -1 -6 -9 -12 -9 -29 0 -48 25 -50 4 -5 -32 36
-29 42 -38 27 -38 -22 0 -82 37 -128 80 -33 30 -106 80 -117 80 -17 0 6 -30
43 -56 43 -29 46 -40 7 -25 -13 5 -50 12 -80 16 l-56 7 44 -47 c24 -27 42 -50
39 -53 -2 -2 9 -21 25 -40 16 -20 28 -37 26 -39 -5 -5 -75 36 -109 64 -16 13
-46 49 -67 80 -21 32 -53 69 -72 83 l-33 24 31 -39 c17 -22 37 -57 45 -77 7
-21 17 -38 23 -38 5 0 6 -3 3 -7 -4 -3 1 -12 11 -20 15 -11 13 -12 -13 -1 -16
7 -33 18 -37 24 -4 6 -17 22 -28 35 -17 18 -20 20 -16 6 5 -14 -3 -11 -33 12
-52 41 -63 39 -22 -3 l33 -34 -38 9 c-61 14 -61 12 2 -32 99 -69 129 -104 82
-95 -13 3 -30 5 -39 5 -9 1 -28 19 -42 40 -28 42 -108 123 -115 117 -2 -2 19
-32 47 -67 28 -35 51 -69 51 -76 0 -20 -51 -16 -74 6 -25 24 -158 100 -241
140 -91 43 -132 47 -51 6 38 -20 87 -49 110 -65 57 -39 134 -120 115 -120 -9
0 -26 11 -39 25 -13 14 -27 25 -31 25 -13 0 -4 -28 16 -50 10 -11 15 -20 11
-20 -20 0 -67 35 -119 89 -49 50 -174 131 -203 131 -4 0 10 -17 30 -38 53 -52
81 -92 64 -92 -7 0 0 -11 16 -23 17 -14 26 -29 22 -35 -4 -7 -3 -12 3 -12 6 0
17 -13 26 -30 23 -44 3 -36 -40 16 -20 25 -40 43 -43 40 -2 -3 0 -11 6 -18 5
-7 17 -29 25 -49 15 -36 14 -36 -7 -31 -11 2 -31 13 -42 24 -13 11 -41 21 -69
23 -35 3 -55 11 -77 32 -19 18 -27 22 -23 10 9 -21 -8 -22 -25 -1 -8 8 -22 20
-34 26 -11 6 2 -15 28 -46 35 -40 44 -56 31 -56 -12 0 -8 -7 14 -26 39 -33 39
-39 -3 -41 -31 -1 -35 2 -65 65 -18 37 -47 83 -63 102 l-31 35 21 -35 c11 -19
29 -51 41 -70 11 -19 21 -42 21 -50 -1 -21 -55 44 -85 103 -24 44 -44 65 -31
31 3 -9 -16 0 -46 22 l-53 38 56 -60 c62 -66 87 -104 68 -104 -7 0 -6 -9 5
-25 20 -30 22 -62 4 -47 -7 5 -29 13 -48 17 -19 4 -45 13 -57 21 -27 17 -29
12 -7 -21 31 -47 -8 -28 -70 35 -33 33 -61 59 -63 57 -1 -2 6 -28 17 -58 11
-29 20 -57 20 -62 0 -12 -60 26 -70 44 -5 9 -22 24 -37 34 l-28 18 25 -28 25
-28 -25 7 c-14 3 -36 9 -50 12 -14 3 2 -8 35 -24 33 -17 52 -31 42 -31 -10 -1
-27 4 -38 10 -11 6 -40 12 -65 15 -60 5 -121 37 -167 87 -28 31 -34 34 -20 13
l17 -29 -29 6 c-28 7 -28 6 -9 -5 23 -14 22 -40 -2 -31 -21 8 -17 -10 6 -24
10 -7 24 -22 31 -34 11 -21 10 -21 -21 2 -18 13 -48 35 -69 48 l-36 24 23 -25
c12 -13 20 -27 16 -30 -12 -12 -91 6 -120 29 -17 12 -35 23 -40 23 -5 0 -15 9
-22 21 -23 37 -24 13 0 -27 l22 -39 -23 20 c-13 11 -39 44 -58 73 -40 60 -63
80 -32 28 12 -20 19 -36 16 -36 -2 0 -26 11 -53 25 -27 14 -40 20 -29 13 35
-23 95 -85 95 -99 0 -7 -17 3 -37 22 -37 34 -86 69 -98 69 -4 0 15 -19 42 -42
53 -45 80 -78 64 -78 -5 0 -40 29 -78 65 -70 67 -95 85 -52 39 26 -29 23 -29
-36 -10 -11 4 -4 -2 15 -12 50 -28 88 -69 113 -122 l23 -47 -60 24 c-33 12
-62 21 -64 18 -3 -2 -14 1 -26 7 -19 10 -20 10 -7 -5 30 -37 -9 -14 -54 30
-26 27 -44 42 -41 35 13 -23 -10 -12 -40 19 -16 17 -38 35 -49 41 -12 6 -6 -4
15 -27 30 -32 31 -35 10 -24 -14 7 -28 13 -31 14 -3 0 -18 14 -33 30 -20 22
-24 24 -17 8 39 -79 36 -82 -29 -33 -19 15 -46 33 -60 39 l-25 12 25 -22 c103
-88 136 -129 105 -129 -20 0 -108 78 -130 115 -26 44 -97 127 -103 121 -2 -3
7 -19 22 -37 15 -17 34 -45 43 -63 l16 -31 -37 33 c-55 48 -54 39 4 -25 28
-32 46 -59 41 -61 -6 -2 2 -14 17 -27 33 -30 8 -35 -29 -6 -13 10 -40 26 -59
35 l-35 17 25 -21 c18 -16 20 -20 7 -16 -10 3 -24 6 -31 6 -7 0 -28 27 -46 61
-38 66 -76 109 -46 51 9 -18 15 -39 13 -45 -2 -6 7 -27 20 -46 13 -19 21 -37
17 -40 -3 -3 -10 2 -15 11 -16 29 -61 79 -66 74 -3 -3 7 -21 22 -41 35 -46 24
-59 -15 -17 -16 18 -32 32 -36 32 -4 0 0 -8 9 -18 34 -37 16 -35 -23 3 l-40
39 6 -32 c7 -33 0 -39 -26 -22 -9 6 -17 5 -22 -3 -5 -8 -14 -5 -31 11 -13 12
-26 20 -29 17 -7 -8 -112 40 -127 59 -7 9 -18 13 -23 10 -5 -3 -15 2 -23 12
-25 35 -24 8 3 -43 14 -29 23 -56 19 -59 -4 -4 -23 0 -43 9 -20 10 -32 12 -28
6 4 -7 -13 1 -37 18 -48 33 -103 63 -116 63 -4 0 5 -8 20 -19 15 -10 35 -27
43 -39 14 -20 13 -21 -23 -15 -21 3 -47 13 -58 22 -19 16 -19 16 -2 -11 30
-47 -1 -32 -70 34 -85 83 -112 97 -45 24 28 -32 52 -62 52 -66 0 -16 -62 -1
-82 19 -31 34 -29 24 8 -31 28 -43 31 -54 18 -56 -34 -8 -69 11 -133 71 -62
58 -68 56 -12 -5 13 -15 22 -30 19 -33 -6 -7 -50 35 -96 90 l-33 40 26 -42
c29 -49 31 -63 10 -63 -32 0 -72 30 -105 79 -19 27 -44 54 -56 60 -19 8 -16 1
17 -47 22 -31 37 -62 35 -68 -3 -7 0 -15 7 -18 9 -3 9 -5 0 -5 -6 -1 -30 22
-53 49 -23 28 -52 55 -64 62 -18 9 -17 7 5 -18 15 -16 46 -65 69 -109 l43 -80
-77 80 c-59 62 -72 72 -55 42 12 -20 25 -40 30 -43 5 -3 9 -9 9 -14 0 -15 -69
22 -75 39 -3 9 -23 36 -46 61 -39 43 -36 30 8 -35 25 -36 16 -39 -62 -18 l-20
6 20 -23 20 -23 -32 6 c-19 4 -33 2 -33 -3 0 -6 5 -10 10 -10 6 0 10 -7 10
-15 0 -35 -37 -7 -72 55 -15 25 -39 56 -54 70 l-28 25 17 -25 c39 -57 58 -100
44 -100 -7 0 -22 7 -33 15 -31 24 -39 17 -13 -12 l24 -26 -35 25 c-49 35 -65
44 -56 30 15 -25 -13 -11 -29 15 -25 37 -96 113 -106 113 -5 0 11 -25 36 -55
24 -31 52 -70 61 -88 17 -31 17 -32 -2 -17 -18 15 -18 14 -1 -13 10 -16 17
-30 15 -32 -2 -2 -35 16 -74 40 -89 54 -188 95 -228 95 -30 -1 -29 -2 12 -16
23 -8 55 -27 71 -42 16 -15 41 -38 55 -51 37 -33 32 -47 -6 -20 -17 13 -28 17
-23 9 9 -15 -8 -7 -39 19 -18 15 -18 15 -7 -7 14 -27 5 -46 -10 -20 -13 23
-100 131 -119 146 -48 40 -47 27 3 -29 32 -35 53 -65 47 -67 -5 -2 -7 -8 -4
-14 13 -20 -35 12 -55 38 -12 15 -21 22 -21 16 0 -7 -18 -4 -46 8 -65 28 -67
25 -6 -10 28 -17 52 -35 52 -41 0 -6 6 -7 13 -3 6 4 9 4 5 -1 -4 -4 -2 -15 5
-23 9 -12 4 -11 -23 3 l-35 18 18 -21 c10 -11 20 -28 21 -37 1 -9 9 -21 17
-26 19 -12 2 -11 -22 1 -10 6 -30 33 -44 60 -32 63 -51 75 -25 16 22 -52 15
-58 -21 -20 -13 14 -33 31 -44 36 -15 8 -12 2 8 -20 31 -33 25 -48 -13 -29
-14 7 -30 30 -39 58 -9 25 -24 57 -33 70 -14 20 -13 13 4 -39 12 -34 19 -65
16 -67 -3 -3 -18 0 -34 5 -21 8 -41 31 -73 85 -47 78 -61 92 -37 34 26 -65 29
-79 12 -73 -9 3 -16 1 -16 -4 0 -13 28 -42 40 -42 10 0 24 -39 17 -46 -5 -5
-82 30 -117 53 -20 13 -18 9 8 -19 24 -25 30 -37 20 -41 -9 -3 -5 -13 16 -36
27 -28 28 -31 9 -31 -20 0 -44 29 -97 120 -14 25 -27 38 -27 30 -1 -8 -3 -22
-4 -30 -1 -8 6 -23 14 -34 16 -18 15 -18 -16 -2 -18 9 -48 30 -67 47 l-35 30
9 -31 c5 -18 14 -38 21 -46 7 -8 10 -17 7 -19 -3 -3 -19 18 -37 45 -39 60 -49
65 -21 10 11 -23 18 -45 15 -50 -3 -5 -1 -11 5 -15 12 -7 13 -35 2 -35 -5 0
-14 12 -21 27 -21 46 -110 149 -159 184 -43 30 -45 30 -23 6 14 -15 26 -33 27
-40 1 -6 18 -39 38 -72 20 -33 36 -63 36 -67 0 -3 -30 14 -67 39 -67 45 -105
64 -153 77 -14 4 4 -9 40 -30 71 -40 120 -77 134 -102 5 -9 -8 -3 -30 15 -47
37 -105 73 -119 73 -5 0 6 -11 26 -24 19 -13 48 -41 64 -62 l29 -37 -50 34
c-27 18 -52 33 -55 32 -4 -1 -30 25 -59 57 -28 33 -57 60 -63 60 -7 0 -21 13
-32 29 -29 45 -30 30 -1 -28 14 -28 26 -55 26 -60 0 -5 -25 15 -55 45 -84 81
-109 87 -32 6 66 -69 80 -89 54 -79 -8 3 -14 -1 -14 -8 0 -7 6 -11 14 -8 7 3
13 0 13 -5 0 -11 -20 -10 -54 4 -13 5 -17 4 -12 -4 5 -8 2 -10 -8 -6 -9 3 -16
10 -16 15 0 5 -10 9 -23 9 -25 0 -83 54 -116 110 -13 21 -21 28 -21 18 0 -9 5
-20 10 -23 6 -3 10 -11 10 -17 0 -6 -10 -3 -22 8 -22 19 -22 18 -3 -28 5 -13
2 -15 -17 -11 l-23 6 25 -28 c23 -26 23 -27 3 -16 -38 20 -37 12 3 -24 21 -19
33 -34 26 -35 -13 0 -23 9 -98 95 -26 29 -30 32 -18 11 10 -16 14 -27 9 -25
-34 14 -169 111 -218 156 -49 45 -137 102 -137 90 0 -3 18 -17 41 -31 55 -37
94 -72 126 -115 l27 -36 -41 37 c-63 56 -95 66 -37 11 28 -26 59 -59 70 -72
l19 -24 -25 7 c-14 4 -50 11 -80 16 -37 7 -61 17 -73 32 l-18 23 11 -23 c21
-43 -5 -21 -33 28 -38 67 -51 72 -19 7 46 -93 44 -86 11 -74 -43 17 -69 49
-80 98 -11 46 -49 142 -55 136 -3 -2 3 -24 12 -48 17 -48 34 -149 27 -161 -2
-4 -16 0 -31 8 -22 14 -21 12 5 -10 24 -20 32 -34 30 -55 -2 -25 -5 -28 -20
-19 -10 5 -26 23 -36 39 -10 17 -28 37 -39 45 -11 7 -34 38 -51 68 -36 64 -62
86 -32 27 12 -23 18 -41 13 -41 -20 0 -52 44 -68 93 -9 30 -25 65 -35 78 -14
19 -13 11 6 -36 35 -85 32 -103 -11 -70 -10 8 -26 15 -34 15 -9 0 -7 -5 8 -16
12 -8 22 -20 22 -25 0 -6 -12 -2 -27 9 -74 51 -70 39 15 -45 75 -74 70 -93
-15 -50 -34 18 -58 40 -81 76 -18 28 -38 53 -43 57 -6 3 2 -13 17 -37 18 -28
23 -44 15 -47 -7 -2 -2 -13 14 -28 15 -14 23 -29 19 -36 -8 -13 -54 35 -54 56
0 8 -7 17 -16 20 -14 5 -15 4 -4 -9 22 -26 6 -26 -34 1 l-37 26 27 -41 c27
-41 29 -66 3 -38 -12 12 -15 12 -24 1 -19 -25 -50 -4 -84 57 -18 32 -35 59
-37 59 -3 0 -2 -5 2 -12 4 -7 3 -8 -4 -4 -7 4 -12 13 -12 19 0 7 -11 26 -25
42 -24 29 -24 28 5 -37 31 -69 37 -93 21 -84 -5 3 -12 -1 -15 -10 -3 -8 -2
-13 3 -10 5 3 15 -2 22 -12 12 -15 12 -16 -2 -5 -9 7 -18 10 -21 8 -3 -3 -37
5 -77 18 -49 17 -78 33 -93 53 -38 49 -131 145 -163 167 -21 14 -15 5 20 -33
31 -33 42 -50 30 -46 -11 4 4 -16 34 -43 30 -28 51 -54 47 -58 -4 -5 -22 8
-39 27 -17 19 -28 27 -24 17 8 -21 4 -21 -31 -3 -56 28 -75 26 -25 -3 55 -33
84 -62 37 -38 -16 8 -43 18 -61 21 -18 4 -44 17 -60 29 -15 12 -24 16 -19 9 4
-6 4 -12 -1 -12 -19 1 -33 19 -53 72 -28 76 -45 85 -19 11 10 -31 18 -62 16
-68 -2 -5 2 -24 10 -42 13 -33 18 -83 7 -83 -3 0 -18 8 -32 18 -29 20 -112 55
-118 50 -1 -2 17 -14 42 -27 24 -13 44 -28 44 -33 0 -5 4 -7 8 -4 12 7 69 -41
60 -50 -5 -4 -17 1 -28 11 -11 10 -20 15 -20 10 0 -4 -6 -3 -12 2 -7 6 -36 18
-65 27 -31 10 -58 27 -67 41 -19 28 -105 94 -156 119 l-35 17 29 -22 c15 -12
37 -36 48 -53 11 -17 17 -22 13 -11 -5 16 0 14 24 -9 33 -32 34 -51 1 -21 -11
10 -20 15 -20 12 0 -3 -15 -2 -32 3 -28 7 -30 7 -14 -3 43 -27 76 -64 82 -92
5 -27 1 -25 -50 32 -51 55 -111 103 -131 103 -4 0 9 -18 29 -40 20 -22 36 -45
36 -50 0 -19 -18 -10 -43 20 -34 40 -41 38 -17 -5 29 -52 6 -43 -61 24 -61 62
-70 67 -43 26 l15 -23 -63 21 c-36 12 -84 39 -110 61 -26 22 -62 48 -80 59
l-33 19 25 -22 c14 -12 37 -32 52 -44 15 -11 28 -28 30 -36 2 -8 12 -19 22
-25 25 -13 122 -152 113 -161 -12 -13 -53 35 -67 77 -8 22 -18 43 -23 46 -7 4
-7 -1 -3 -13 24 -57 14 -54 -60 17 -69 65 -175 139 -199 139 -5 0 23 -22 61
-49 38 -26 100 -81 139 -122 l70 -74 -44 -3 c-31 -2 -58 4 -91 20 -28 14 -56
21 -66 18 -15 -6 -14 -8 9 -14 15 -3 25 -11 22 -16 -3 -5 0 -12 6 -15 5 -4 8
-13 5 -20 -3 -8 2 -19 10 -25 8 -7 14 -17 14 -22 0 -6 -7 -5 -15 2 -8 7 -15 9
-15 6 0 -4 -12 1 -28 12 -62 44 -152 80 -108 43 8 -7 12 -20 9 -28 -5 -12 -3
-14 8 -8 11 6 11 5 2 -5 -10 -11 -17 -10 -38 4 -14 9 -29 24 -32 32 -3 9 -9
11 -12 6 -5 -8 -162 73 -208 108 -10 8 -5 0 11 -18 17 -18 27 -32 23 -32 -4 0
10 -15 31 -34 31 -29 35 -37 23 -48 -8 -7 -11 -8 -8 -2 6 10 -87 60 -96 52 -2
-2 -12 4 -22 12 -10 8 -4 -7 14 -35 43 -67 41 -80 -6 -60 -21 9 -47 24 -58 34
-11 10 -27 22 -35 26 -13 8 -13 7 0 -10 14 -17 13 -18 -11 -13 -21 4 -26 1
-24 -11 2 -9 4 -19 4 -23 1 -3 14 -9 31 -13 29 -6 86 -62 75 -73 -3 -3 -20 8
-38 25 -17 17 -42 34 -54 38 -13 3 -23 10 -23 14 0 4 -16 13 -34 19 -21 8 -44
27 -56 47 -12 19 -24 35 -27 35 -3 0 2 -11 11 -25 9 -13 16 -26 16 -29 0 -2
-21 2 -47 10 -43 13 -100 20 -63 7 8 -2 39 -14 68 -25 54 -21 71 -42 27 -33
-14 3 -36 7 -50 10 l-26 6 16 -32 16 -31 -48 28 -48 27 45 -48 45 -49 -40 29
c-22 16 -51 39 -64 51 -13 12 -30 20 -36 17 -7 -2 -28 12 -47 31 -33 34 -57
48 -43 26 8 -14 0 -13 -43 6 -20 9 -48 18 -62 20 -14 3 -33 7 -43 10 -16 5
-16 3 3 -28 28 -46 25 -56 -7 -27 l-27 24 21 -30 c19 -28 53 -94 53 -102 0
-10 -70 34 -102 65 -21 20 -38 32 -38 28 0 -5 -11 -1 -25 8 -31 21 -41 20 -24
-1 12 -15 12 -16 -5 -9 -19 7 -19 6 -1 -14 18 -20 18 -20 -3 -20 -11 0 -24 5
-27 10 -4 6 -10 8 -15 5 -5 -3 -31 10 -58 30 -51 36 -161 89 -169 81 -3 -2 16
-13 41 -25 56 -24 113 -67 128 -95 11 -20 10 -20 -16 -3 -14 10 -26 13 -26 7
0 -6 -5 -8 -10 -5 -6 4 -7 11 -4 17 4 7 2 8 -5 4 -6 -4 -9 -12 -6 -17 13 -20
-25 -8 -39 13 -9 12 -16 17 -16 11 0 -22 -101 30 -116 59 -8 16 -17 28 -20 28
-2 0 0 -9 6 -21 18 -33 5 -33 -36 3 -26 22 -32 24 -16 7 12 -14 22 -31 22 -37
0 -7 4 -12 8 -12 4 0 16 -15 26 -33 l19 -32 -28 25 c-25 22 -27 23 -21 5 4
-13 -5 -8 -29 17 -19 20 -35 42 -35 47 0 6 -4 19 -9 29 -16 30 -50 233 -60
362 -10 120 -20 320 -41 837 -10 246 -7 278 27 328 7 11 13 26 13 33 0 8 6 28
14 45 78 170 96 232 96 330 0 70 4 94 19 115 10 15 49 86 86 157 37 72 83 158
102 193 25 48 33 74 33 116 l0 53 63 28 c34 14 76 33 92 40 58 25 75 27 75 11
0 -15 3 -15 38 0 68 29 85 28 112 -8 l24 -32 8 29 c4 17 5 38 2 48 -4 13 0 17
18 17 31 0 42 -9 58 -48 l13 -34 21 25 c26 31 70 59 79 50 17 -16 5 -33 -23
-33 -39 0 -39 -19 0 -27 24 -4 29 -10 25 -24 -7 -22 2 -23 41 -9 26 10 26 10
21 -20 -6 -29 9 -43 18 -17 4 8 21 11 50 9 38 -3 45 -7 45 -25 0 -20 2 -19 28
6 35 34 39 34 47 -3 10 -44 30 -52 22 -9 -3 19 -8 42 -12 52 -6 15 -1 17 39
17 42 0 50 5 48 30 0 3 8 17 18 30 l19 25 13 -32 c12 -27 17 -30 27 -20 11 10
12 8 6 -10 -5 -17 -2 -23 9 -23 9 0 30 -15 46 -32 l29 -33 1 43 c0 39 2 41 19
31 24 -16 51 -5 51 20 0 24 32 44 55 35 16 -7 16 -18 0 -58 -6 -14 -4 -17 6
-14 8 3 22 -8 34 -26 l20 -31 3 46 c3 42 5 46 24 41 12 -3 19 -1 15 5 -6 10
26 43 42 43 5 0 14 -7 21 -15 7 -8 21 -15 31 -15 16 0 17 -4 9 -26 -14 -35
-14 -36 23 -32 26 2 34 9 43 36 13 40 16 42 38 20 14 -14 15 -22 6 -39 -17
-31 -6 -33 29 -4 21 18 31 22 31 13 0 -10 13 -15 40 -16 31 -2 38 1 34 13 -8
20 13 45 37 45 11 0 19 5 19 10 0 6 5 10 10 10 6 0 10 -9 10 -19 0 -11 6 -21
13 -24 9 -3 9 -7 -1 -20 -18 -21 -9 -33 29 -41 24 -5 38 -1 61 19 32 27 48 31
65 14 7 -7 19 -3 41 15 16 14 34 26 40 26 9 0 31 25 52 59 7 12 11 12 24 2 20
-17 41 -2 50 34 6 24 26 36 26 16 0 -5 10 -7 21 -4 19 5 21 3 16 -18 -6 -23
-4 -25 28 -21 25 3 35 0 35 -9 0 -11 2 -11 10 1 8 12 10 12 10 -5 1 -19 1 -19
14 -2 17 21 30 22 22 1 -5 -13 -1 -15 19 -10 16 4 25 2 25 -6 0 -9 3 -9 11 -1
8 8 17 5 32 -10 12 -12 21 -27 20 -32 -2 -6 22 -25 52 -43 61 -37 92 -74 97
-117 3 -33 38 -50 38 -19 0 16 2 15 16 -4 16 -23 55 -49 53 -35 -4 21 2 33 16
33 8 0 31 17 51 37 28 27 36 32 32 17 -4 -15 0 -20 16 -21 12 -1 15 1 8 4 -6
3 -9 9 -6 14 3 6 0 16 -6 24 -9 11 -9 15 -1 15 6 0 11 -4 11 -10 0 -5 7 -10
15 -10 8 0 17 -11 21 -25 4 -15 16 -28 31 -31 22 -6 23 -8 8 -24 -15 -17 -15
-19 3 -37 11 -10 22 -25 24 -33 4 -10 11 -2 24 23 l19 39 22 -29 c13 -15 23
-23 23 -17 0 6 -7 17 -15 24 -24 20 -17 38 18 45 17 4 37 11 43 16 6 5 18 3
30 -6 21 -16 48 -20 40 -6 -4 5 3 7 14 4 15 -4 20 -14 20 -38 0 -24 5 -34 20
-38 21 -5 50 29 50 60 0 10 4 14 8 8 4 -5 16 -15 27 -21 14 -8 19 -19 17 -38
-4 -30 0 -32 34 -10 29 20 43 12 23 -12 -13 -16 -12 -16 6 -5 16 10 27 9 58
-3 20 -9 37 -23 37 -32 0 -8 4 -12 10 -9 6 3 10 22 10 41 0 19 5 34 11 34 5 0
7 5 4 10 -3 6 1 10 11 10 24 0 67 49 61 71 -3 12 2 19 19 23 28 7 31 21 7 36
-15 9 -12 10 15 7 35 -4 59 14 46 35 -10 15 -14 38 -8 38 2 0 10 -15 18 -32 8
-19 15 -26 15 -16 1 25 48 75 76 82 19 5 25 13 25 32 0 17 13 38 38 60 20 19
47 45 60 57 l23 22 -25 8 c-14 5 -26 15 -26 23 0 8 -5 14 -11 14 -5 0 -8 -4
-5 -9 3 -5 -1 -11 -9 -15 -10 -3 -16 1 -16 14 -1 11 -2 26 -3 32 -2 21 33 16
117 -19 44 -19 51 -15 49 32 -1 25 3 35 13 35 18 0 18 5 4 31 -18 34 -3 56 39
56 20 0 30 -1 21 -4 -10 -2 -15 -11 -12 -22 2 -9 -3 -23 -11 -30 -9 -8 -16
-17 -16 -22 0 -13 44 -11 58 3 9 9 12 8 12 -5 0 -20 78 -99 85 -86 3 4 1 10
-5 14 -18 11 -11 52 10 58 16 4 20 0 20 -20 0 -22 2 -24 16 -13 19 16 62 22
69 9 4 -5 16 -14 27 -20 20 -11 21 -9 16 29 -5 35 -3 39 12 35 12 -3 22 3 29
16 13 24 41 28 41 6 0 -8 8 -28 18 -45 l19 -30 11 25 c7 14 12 32 12 40 0 10
9 12 38 8 36 -6 37 -6 20 14 -21 23 -24 52 -5 54 28 3 53 -4 70 -18 18 -17 18
-18 21 55 1 11 12 19 36 23 41 8 47 5 30 -16 -12 -14 -8 -15 31 -9 24 4 52 14
62 22 12 11 17 12 17 3 0 -7 7 -29 16 -48 19 -38 34 -30 34 20 0 24 3 27 20
22 11 -3 20 -2 20 3 0 5 -9 17 -20 27 -25 22 -25 32 -2 38 14 4 13 5 -4 6 -19
1 -21 7 -22 68 l-1 66 27 -26 c15 -14 47 -33 72 -43 25 -10 48 -22 52 -28 10
-15 25 31 26 82 1 24 4 47 7 52 3 4 -2 13 -10 20 -19 16 -10 30 19 30 27 0 71
29 45 30 -9 0 -19 10 -22 22 -5 19 -8 20 -24 7 -17 -13 -17 -13 0 7 16 20 16
22 1 35 -18 15 -52 14 -68 -2 -18 -16 -38 -11 -28 7 5 9 7 25 5 35 -3 11 2 30
11 44 9 14 14 30 11 35 -3 6 5 10 19 10 23 0 24 1 11 26 -7 14 -11 38 -9 54 5
27 4 27 -36 20 -34 -6 -38 -5 -28 7 9 11 7 15 -11 20 -17 4 -19 8 -9 14 19 12
-20 40 -50 35 -22 -3 -22 -2 -6 15 18 20 15 22 -26 20 -19 -2 -26 3 -27 18 -1
15 4 21 18 21 11 0 22 7 25 15 8 20 -15 47 -34 40 -11 -4 -12 -2 -4 8 14 16
-1 42 -18 32 -9 -6 -11 -4 -4 6 11 19 14 39 5 39 -4 0 -12 15 -18 33 -8 27 -7
38 7 58 9 13 24 45 32 71 15 46 14 47 -6 50 -13 2 -19 9 -17 18 2 8 4 29 5 45
1 17 5 36 9 43 5 7 3 12 -5 12 -7 0 -21 18 -31 39 -16 32 -17 41 -6 59 10 16
20 20 37 15 23 -5 23 -4 10 18 -17 31 -28 38 -47 32 -12 -4 -13 -3 -3 4 10 8
11 15 1 36 -7 15 -17 24 -23 20 -6 -4 -3 3 7 14 19 22 23 43 7 43 -5 0 -10 8
-10 19 0 34 -35 31 -65 -5 -25 -30 -33 -33 -63 -28 -32 6 -34 5 -27 -16 6 -19
4 -22 -10 -16 -10 3 -24 1 -32 -5 -11 -10 -12 -8 -3 15 5 15 10 43 10 62 0 38
5 41 30 19 13 -12 24 -13 42 -6 29 11 36 25 44 90 2 25 7 54 10 64 3 9 1 17
-5 17 -6 0 -11 -4 -11 -10 0 -5 -5 -10 -11 -10 -8 0 -8 4 0 14 14 16 4 46 -15
46 -10 0 -8 9 7 35 22 37 20 42 -13 24 -16 -8 -22 -8 -29 2 -5 9 -11 6 -20
-14 -16 -36 -33 -34 -26 3 4 17 2 30 -3 30 -5 0 -11 -10 -13 -22 -4 -22 -4
-22 -6 -2 -2 38 -26 48 -70 30 -25 -9 -42 -12 -46 -6 -3 6 2 10 13 10 10 0 28
10 40 23 21 23 21 23 1 35 -11 7 -25 10 -31 6 -8 -5 -9 8 -5 42 4 43 4 47 -9
29 -8 -10 -14 -22 -14 -27 0 -4 -7 -5 -16 -1 -14 5 -16 1 -12 -25 2 -18 1 -32
-3 -32 -5 0 -6 -7 -3 -15 4 -8 1 -22 -6 -30 -7 -9 -10 -19 -6 -22 4 -4 -4 -13
-16 -20 -13 -7 -17 -12 -10 -13 25 0 -1 -79 -28 -81 -8 -1 -21 -2 -28 -2 -7 1
-11 -5 -8 -13 9 -25 -3 -15 -17 14 -9 17 -11 35 -6 47 12 31 11 35 -14 35 -13
0 -28 5 -35 12 -9 9 -12 8 -12 -6 0 -12 -5 -16 -16 -12 -9 3 -20 6 -25 6 -5 0
-9 10 -9 23 0 12 -5 29 -10 37 -6 10 -4 20 6 31 13 14 13 22 4 39 -9 16 -9 25
-1 33 15 15 14 44 -1 49 -7 3 -9 12 -5 22 4 10 13 16 21 13 19 -7 26 13 13 37
-7 15 -6 18 7 13 16 -7 32 8 18 17 -5 3 -7 19 -4 35 4 27 2 29 -19 24 -13 -3
-29 -10 -35 -15 -11 -8 -23 7 -20 24 2 12 -38 36 -51 31 -11 -4 -12 4 -7 36 5
32 3 41 -8 41 -8 0 -40 25 -72 55 -31 30 -63 55 -71 55 -21 0 -45 29 -45 54 0
31 22 76 38 76 8 0 12 6 9 13 -2 6 -16 11 -31 10 -16 -1 -35 6 -47 18 -10 10
-27 19 -36 19 -9 0 -13 -3 -10 -6 3 -4 2 -15 -3 -25 -7 -12 -6 -19 3 -22 7 -4
6 -6 -4 -6 -25 -1 -31 26 -14 66 l15 36 -20 -18 c-17 -15 -25 -17 -38 -8 -9 6
-16 17 -16 26 1 9 -5 13 -16 10 -12 -3 -20 2 -25 17 -5 17 -12 20 -31 16 -17
-5 -24 -2 -24 9 0 10 10 15 31 15 25 0 29 3 24 19 -3 11 -1 22 5 26 5 3 14 15
20 25 9 18 8 18 -20 9 -16 -6 -33 -15 -36 -20 -9 -16 -24 -10 -24 10 0 13 -9
21 -30 26 -21 5 -30 12 -30 27 0 13 -5 18 -14 15 -7 -3 -23 7 -35 24 -13 18
-31 29 -45 29 -16 0 -26 7 -29 21 -3 11 -15 23 -26 26 -12 3 -21 12 -21 19 0
18 14 18 30 -1 16 -19 34 -19 26 0 -4 10 6 20 30 30 37 15 38 35 2 35 -19 0
-19 1 3 20 l24 19 -31 6 c-27 6 -32 13 -48 67 -13 44 -21 57 -29 49 -18 -18
-25 -13 -19 14 4 24 3 25 -24 15 -16 -6 -34 -16 -41 -22 -7 -5 -20 -7 -29 -4
-12 4 -15 2 -10 -9 3 -8 1 -15 -4 -15 -6 0 -10 5 -10 10 0 6 -6 10 -14 10 -8
0 -18 10 -21 23 -7 22 -59 77 -73 77 -4 0 -22 -13 -39 -29 -47 -42 -106 -46
-147 -9 -17 15 -33 28 -37 28 -12 0 -17 -55 -7 -67 8 -10 6 -13 -5 -13 -8 0
-22 -3 -31 -6 -9 -3 -16 -1 -16 5 0 6 6 11 13 11 8 0 13 13 14 35 1 30 -1 33
-17 25 -10 -5 -21 -15 -24 -22 -3 -7 -4 -1 -1 15 4 18 1 27 -7 28 -7 0 -4 4 7
8 19 8 19 8 -5 21 -23 12 -23 13 -5 26 10 8 14 14 8 14 -7 0 -15 -4 -18 -10
-11 -18 -26 -10 -20 10 4 11 2 20 -4 20 -6 0 -13 11 -17 25 -3 14 -8 25 -10
25 -8 0 -44 -40 -44 -49 0 -5 -18 0 -40 11 -37 19 -58 47 -26 35 8 -3 33 1 55
10 l40 15 -29 24 c-15 13 -33 24 -39 24 -6 0 -11 7 -11 15 0 9 9 15 25 15 18
0 23 4 18 16 -3 9 6 27 23 46 l29 31 -30 -7 c-16 -4 -38 -9 -47 -12 -13 -4
-18 0 -18 15 0 12 -15 34 -32 50 -28 25 -35 27 -48 16 -8 -7 -28 -17 -45 -21
-39 -9 -95 -63 -95 -91 0 -12 -5 -25 -10 -28 -8 -5 -7 -11 1 -21 8 -10 8 -14
0 -14 -6 0 -14 -12 -17 -26 -5 -21 -9 -23 -15 -11 -7 11 -19 14 -51 10 -24 -3
-46 -11 -50 -17 -4 -6 -10 -7 -14 -4 -4 4 3 18 15 30 11 13 27 31 34 41 11 15
17 16 41 7 37 -14 47 -4 17 16 -17 12 -19 19 -11 29 9 11 6 14 -12 17 -17 2
-23 9 -23 28 1 20 -4 25 -27 27 -15 1 -28 -1 -28 -6 0 -5 -12 -6 -26 -3 -17 3
-25 1 -21 -5 4 -6 -7 -13 -27 -17 -21 -4 -33 -12 -32 -21 0 -7 -3 -14 -8 -14
-5 1 -12 -5 -17 -12 -6 -10 -13 -10 -33 -1 -14 6 -33 9 -41 6 -11 -5 -15 1
-15 26 l0 33 -21 -27 c-12 -15 -24 -25 -26 -22 -3 3 15 33 41 67 34 45 46 70
46 95 l0 34 -39 -20 c-27 -13 -41 -16 -43 -8 -2 6 -22 17 -45 23 l-40 12 2
-28 c1 -16 8 -35 15 -44 10 -12 9 -15 -6 -16 -11 -1 -23 -1 -28 0 -5 1 -17 -6
-27 -15 -11 -10 -22 -14 -27 -10 -4 4 7 19 23 32 30 24 30 24 6 24 -23 0 -24
1 -6 20 10 11 13 20 8 20 -6 0 -13 13 -16 29 -4 20 -12 28 -24 27 -13 -1 -19
7 -21 32 -2 20 -9 32 -18 32 -8 0 -17 7 -20 15 -8 20 -31 19 -43 -2 -6 -10
-11 -13 -11 -8 0 21 30 53 56 59 21 6 23 10 14 21 -9 10 -9 19 0 35 19 35 3
35 -29 1 -21 -22 -30 -27 -34 -17 -3 8 -15 12 -31 9 -20 -4 -28 0 -37 21 -7
14 -20 26 -31 26 -10 0 -18 5 -18 10 0 6 -7 10 -15 10 -8 0 -15 -7 -15 -15 0
-8 -7 -15 -15 -15 -8 0 -15 -7 -15 -15 0 -8 -9 -15 -20 -15 -16 0 -20 -7 -20
-35 0 -31 -3 -35 -25 -35 -29 0 -30 5 -10 40 29 51 12 103 -23 68 -9 -9 -15
-9 -24 0 -10 10 -10 15 2 22 11 7 9 11 -13 19 -16 6 -35 11 -44 11 -10 0 -13
6 -9 16 3 8 1 20 -4 27 -6 7 -17 21 -24 32 -14 19 -14 19 -34 -5 -11 -13 -17
-30 -15 -37 9 -23 -26 -14 -49 12 -15 18 -32 25 -57 25 -30 1 -33 2 -18 11 9
5 21 8 26 5 5 -3 14 1 21 9 7 8 16 12 21 9 5 -3 9 5 9 18 0 13 5 30 10 38 8
13 10 12 10 -4 0 -15 3 -16 15 -6 10 8 19 9 28 3 6 -6 20 -13 31 -17 15 -5 14
0 -9 30 -24 31 -26 39 -14 48 10 8 24 86 15 86 -1 0 -16 -4 -34 -9 -30 -9 -32
-8 -32 16 0 13 -9 36 -20 50 -11 14 -20 34 -20 43 0 24 -54 34 -89 16 -15 -8
-42 -28 -59 -44 -18 -17 -32 -26 -32 -21 0 5 -4 9 -10 9 -5 0 -10 -14 -10 -31
0 -23 -4 -30 -15 -26 -8 4 -17 2 -21 -4 -3 -6 -12 -8 -19 -5 -14 5 -31 -28
-27 -51 3 -16 -44 -18 -53 -3 -9 15 -35 -7 -29 -24 3 -7 -2 -13 -11 -13 -8 0
-15 6 -15 13 0 9 -7 11 -17 7 -16 -6 -16 -4 1 16 20 22 20 22 -3 28 -16 4 -20
10 -15 22 3 9 8 24 11 33 3 9 11 14 18 12 12 -5 29 29 26 54 -2 9 9 11 41 7
40 -6 42 -5 24 9 -11 9 -23 16 -28 16 -4 0 -5 6 -2 14 5 12 -4 14 -43 13 -26
-1 -56 2 -66 7 -12 6 -17 5 -15 -4 2 -7 -2 -14 -8 -17 -12 -4 -24 27 -24 66 0
23 -1 23 -18 8 -32 -29 -52 -16 -52 34 0 11 -6 22 -14 25 -8 3 -20 19 -26 35
-7 16 -20 29 -29 29 -9 0 -22 5 -29 12 -8 8 -15 8 -28 -3 -16 -12 -17 -12 -11
3 3 10 2 20 -3 23 -6 4 -10 15 -10 26 0 10 -4 19 -8 19 -5 0 -17 15 -27 34
-13 23 -28 36 -48 40 -41 8 -49 8 -42 -4z m2132 -1465 c11 -8 24 -26 27 -40 6
-25 20 -33 30 -16 7 10 56 2 56 -10 0 -5 -7 -9 -17 -9 -15 0 -15 -1 0 -18 10
-10 17 -23 17 -29 0 -6 6 -13 13 -16 20 -7 -9 -34 -43 -39 -27 -4 -29 -2 -24
19 4 15 2 23 -7 23 -7 0 -23 10 -36 22 -22 20 -23 21 -23 2 0 -10 -7 -27 -14
-36 -12 -17 -14 -17 -31 2 -13 14 -21 17 -26 9 -10 -17 -28 -2 -22 20 3 12 21
23 49 31 35 10 42 15 33 26 -6 7 -8 18 -4 24 3 6 -3 10 -14 10 -24 0 -27 10
-9 28 15 15 19 15 45 -3z m-3317 -3834 c0 -5 18 -18 40 -30 l40 -21 1 23 c2
20 2 20 6 2 2 -13 17 -24 40 -32 33 -10 38 -9 64 18 16 16 32 29 37 29 19 0
20 -14 4 -39 -25 -36 -102 -206 -102 -225 0 -8 -17 -34 -37 -58 -33 -38 -47
-61 -83 -138 -4 -8 -21 -22 -38 -32 -29 -16 -31 -16 -30 0 0 9 -9 42 -21 72
-12 30 -21 64 -21 75 0 12 -5 26 -11 32 -19 19 -13 143 10 203 12 30 21 69 22
85 0 25 2 27 9 10 7 -18 9 -18 15 -3 4 9 13 14 21 11 8 -3 14 -2 13 3 -3 16 1
24 11 24 6 0 10 -4 10 -9z"/>
</g>
</svg>
